<svg xmlns="http://www.w3.org/2000/svg" viewBox="0 0 64 64" width="64" height="64">
  <defs>
    <linearGradient id="sky" x1="0" y1="0" x2="0" y2="1">
      <stop offset="0%" stop-color="#4FC3F7"/>
      <stop offset="100%" stop-color="#B3E5FC"/>
    </linearGradient>
    <linearGradient id="sea" x1="0" y1="0" x2="0" y2="1">
      <stop offset="0%" stop-color="#29B6F6"/>
      <stop offset="100%" stop-color="#0277BD"/>
    </linearGradient>
    <linearGradient id="sand" x1="0" y1="0" x2="0" y2="1">
      <stop offset="0%" stop-color="#FFE082"/>
      <stop offset="100%" stop-color="#FFCA28"/>
    </linearGradient>
    <clipPath id="circle">
      <circle cx="32" cy="32" r="31"/>
    </clipPath>
    <radialGradient id="sunGlow" cx="50%" cy="50%" r="50%">
      <stop offset="0%" stop-color="#FFD54F"/>
      <stop offset="60%" stop-color="#FFB300"/>
      <stop offset="100%" stop-color="#FF8F00" stop-opacity="0"/>
    </radialGradient>
  </defs>
  <circle cx="32" cy="32" r="32" fill="url(#sky)"/>
  <g clip-path="url(#circle)">
    <rect x="0" y="0" width="64" height="64" fill="url(#sky)"/>
    <circle cx="50" cy="12" r="9" fill="url(#sunGlow)" opacity="0.5"/>
    <circle cx="50" cy="12" r="6" fill="#FFD54F"/>
    <g stroke="#FFD54F" stroke-width="1.5" stroke-linecap="round" opacity="0.8">
      <line x1="50" y1="3" x2="50" y2="1"/>
      <line x1="50" y1="21" x2="50" y2="23"/>
      <line x1="41" y1="12" x2="39" y2="12"/>
      <line x1="59" y1="12" x2="61" y2="12"/>
      <line x1="43.6" y1="5.6" x2="42.2" y2="4.2"/>
      <line x1="56.4" y1="18.4" x2="57.8" y2="19.8"/>
      <line x1="56.4" y1="5.6" x2="57.8" y2="4.2"/>
      <line x1="43.6" y1="18.4" x2="42.2" y2="19.8"/>
    </g>
    <g fill="#fff" opacity="0.9">
      <ellipse cx="14" cy="16" rx="7" ry="4"/>
      <ellipse cx="20" cy="14" rx="5" ry="3.5"/>
      <ellipse cx="8" cy="17" rx="4" ry="3"/>
    </g>
    <g fill="#fff" opacity="0.75">
      <ellipse cx="38" cy="22" rx="5" ry="3"/>
      <ellipse cx="33" cy="23" rx="3.5" ry="2.5"/>
      <ellipse cx="43" cy="22" rx="3" ry="2"/>
    </g>
    <rect x="0" y="42" width="64" height="24" fill="url(#sea)"/>
    <path d="M0 44 Q8 41 16 44 Q24 47 32 44 Q40 41 48 44 Q56 47 64 44 L64 46 Q56 49 48 46 Q40 43 32 46 Q24 49 16 46 Q8 43 0 46Z" fill="#4FC3F7" opacity="0.4"/>
    <ellipse cx="30" cy="44" rx="22" ry="8" fill="url(#sand)"/>
    <ellipse cx="28" cy="42" rx="14" ry="3" fill="#FFF8E1" opacity="0.5"/>
    <path d="M30 44 Q28 36 26 26 Q25 22 27 18" stroke="#8D6E63" stroke-width="2.5" stroke-linecap="round" fill="none"/>
    <g fill="none" stroke-linecap="round">
      <path d="M27 18 Q18 12 12 15" stroke="#2E7D32" stroke-width="2.2"/>
      <path d="M27 18 Q19 13 14 17" stroke="#388E3C" stroke-width="1.2" opacity="0.6"/>
      <path d="M27 18 Q36 11 40 13" stroke="#2E7D32" stroke-width="2.2"/>
      <path d="M27 18 Q35 12 38 16" stroke="#388E3C" stroke-width="1.2" opacity="0.6"/>
      <path d="M27 18 Q25 8 23 5" stroke="#388E3C" stroke-width="2.0"/>
      <path d="M27 18 Q16 18 11 22" stroke="#2E7D32" stroke-width="2.0"/>
      <path d="M27 18 Q36 17 40 21" stroke="#33691E" stroke-width="1.8"/>
    </g>
    <circle cx="27" cy="20" r="2.2" fill="#795548"/>
    <circle cx="24" cy="19" r="1.8" fill="#6D4C41"/>
    <ellipse cx="18" cy="46" rx="2" ry="1.2" fill="#FFB74D" opacity="0.9"/>
    <ellipse cx="42" cy="45" rx="1.5" ry="0.9" fill="#FF8A65" opacity="0.9"/>
  </g>
  <circle cx="32" cy="32" r="31" fill="none" stroke="#0288D1" stroke-width="1.5" opacity="0.5"/>
</svg>